<svg width="237" height="114" viewBox="0 0 237 114" fill="none" xmlns="http://www.w3.org/2000/svg">
<rect width="237" height="114" rx="28" fill="white"/>
<g clip-path="url(#clip0_218_2)">
<path d="M58.8356 24.0285C58.7145 23.8931 54.3504 24.082 50.5528 28.2038C46.7552 32.322 47.3394 37.0459 47.4249 37.167C47.5104 37.2881 52.8399 37.477 56.2421 32.6854C59.6443 27.8938 58.9567 24.1675 58.8356 24.0285ZM70.6417 65.8273C70.4707 65.4853 62.3589 61.4312 63.1142 53.6365C63.8694 45.8382 69.0814 43.7007 69.1633 43.4691C69.2452 43.2375 67.0365 40.6547 64.6959 39.3473C62.9774 38.4255 61.0755 37.8974 59.1277 37.8012C58.743 37.7905 57.407 37.4627 54.6604 38.2144C52.8506 38.7096 48.7715 40.3127 47.6494 40.3768C46.5236 40.441 43.1749 38.5172 39.5732 38.0078C37.2682 37.5625 34.8244 38.4745 33.0752 39.1763C31.3295 39.8745 28.0093 41.8624 25.6865 47.1456C23.3638 52.4252 24.5786 60.79 25.4479 63.3906C26.3171 65.9876 27.6744 70.2448 29.9829 73.3513C32.0349 76.8568 34.7567 79.29 35.8931 80.1165C37.0295 80.943 40.2358 81.4916 42.4588 80.3552C44.2472 79.258 47.4748 78.6274 48.7502 78.6737C50.022 78.72 52.53 79.2223 55.0985 80.5939C57.1327 81.2957 59.0565 81.0036 60.9838 80.2198C62.9111 79.4325 65.7005 76.4471 68.9567 70.3945C70.1929 67.5801 70.7557 66.0589 70.6417 65.8273Z" fill="black"/>
<path d="M58.8356 24.0285C58.7145 23.8931 54.3504 24.082 50.5528 28.2038C46.7552 32.322 47.3394 37.0459 47.4249 37.167C47.5104 37.2881 52.8399 37.477 56.2421 32.6854C59.6443 27.8938 58.9567 24.1675 58.8356 24.0285ZM70.6417 65.8273C70.4707 65.4853 62.3589 61.4312 63.1142 53.6365C63.8694 45.8382 69.0814 43.7007 69.1633 43.4691C69.2452 43.2375 67.0365 40.6547 64.6959 39.3473C62.9774 38.4255 61.0755 37.8974 59.1277 37.8012C58.743 37.7905 57.407 37.4627 54.6604 38.2144C52.8506 38.7096 48.7715 40.3127 47.6494 40.3768C46.5236 40.441 43.1749 38.5172 39.5732 38.0078C37.2682 37.5625 34.8244 38.4745 33.0752 39.1763C31.3295 39.8745 28.0093 41.8624 25.6865 47.1456C23.3638 52.4252 24.5786 60.79 25.4479 63.3906C26.3171 65.9876 27.6744 70.2448 29.9829 73.3513C32.0349 76.8568 34.7567 79.29 35.8931 80.1165C37.0295 80.943 40.2358 81.4916 42.4588 80.3552C44.2472 79.258 47.4748 78.6274 48.7502 78.6737C50.022 78.72 52.53 79.2223 55.0985 80.5939C57.1327 81.2957 59.0565 81.0036 60.9838 80.2198C62.9111 79.4325 65.7005 76.4471 68.9567 70.3945C70.1929 67.5801 70.7557 66.0589 70.6417 65.8273Z" fill="black"/>
</g>
<path d="M88.1083 41.5H92.2633C93.3533 41.5 94.3183 41.725 95.1583 42.175C96.0083 42.625 96.6683 43.25 97.1383 44.05C97.6083 44.84 97.8433 45.74 97.8433 46.75C97.8433 47.76 97.6083 48.665 97.1383 49.465C96.6683 50.255 96.0083 50.875 95.1583 51.325C94.3183 51.775 93.3533 52 92.2633 52H88.1083V41.5ZM92.2033 51.31C93.1733 51.31 94.0283 51.12 94.7683 50.74C95.5083 50.35 96.0783 49.81 96.4783 49.12C96.8783 48.43 97.0783 47.64 97.0783 46.75C97.0783 45.86 96.8783 45.07 96.4783 44.38C96.0783 43.69 95.5083 43.155 94.7683 42.775C94.0283 42.385 93.1733 42.19 92.2033 42.19H88.8733V51.31H92.2033ZM103.321 52.06C102.581 52.06 101.911 51.89 101.311 51.55C100.721 51.21 100.256 50.74 99.9159 50.14C99.5759 49.53 99.4059 48.845 99.4059 48.085C99.4059 47.325 99.5759 46.645 99.9159 46.045C100.256 45.435 100.721 44.96 101.311 44.62C101.911 44.28 102.581 44.11 103.321 44.11C104.061 44.11 104.726 44.28 105.316 44.62C105.916 44.96 106.386 45.435 106.726 46.045C107.066 46.645 107.236 47.325 107.236 48.085C107.236 48.845 107.066 49.53 106.726 50.14C106.386 50.74 105.916 51.21 105.316 51.55C104.726 51.89 104.061 52.06 103.321 52.06ZM103.321 51.385C103.921 51.385 104.456 51.245 104.926 50.965C105.406 50.685 105.781 50.295 106.051 49.795C106.331 49.295 106.471 48.725 106.471 48.085C106.471 47.445 106.331 46.875 106.051 46.375C105.781 45.875 105.406 45.485 104.926 45.205C104.456 44.925 103.921 44.785 103.321 44.785C102.721 44.785 102.181 44.925 101.701 45.205C101.231 45.485 100.856 45.875 100.576 46.375C100.306 46.875 100.171 47.445 100.171 48.085C100.171 48.725 100.306 49.295 100.576 49.795C100.856 50.295 101.231 50.685 101.701 50.965C102.181 51.245 102.721 51.385 103.321 51.385ZM120.533 44.17L117.563 52H116.858L114.218 45.205L111.563 52H110.873L107.903 44.17H108.623L111.233 51.16L113.903 44.17H114.548L117.203 51.145L119.843 44.17H120.533ZM126.103 44.11C127.083 44.11 127.858 44.395 128.428 44.965C128.998 45.535 129.283 46.355 129.283 47.425V52H128.533V47.485C128.533 46.605 128.308 45.935 127.858 45.475C127.418 45.015 126.798 44.785 125.998 44.785C125.078 44.785 124.353 45.06 123.823 45.61C123.293 46.16 123.028 46.9 123.028 47.83V52H122.278V44.17H122.998V45.865C123.268 45.315 123.668 44.885 124.198 44.575C124.738 44.265 125.373 44.11 126.103 44.11ZM132.37 40.87H133.12V52H132.37V40.87ZM139.341 52.06C138.601 52.06 137.931 51.89 137.331 51.55C136.741 51.21 136.276 50.74 135.936 50.14C135.596 49.53 135.426 48.845 135.426 48.085C135.426 47.325 135.596 46.645 135.936 46.045C136.276 45.435 136.741 44.96 137.331 44.62C137.931 44.28 138.601 44.11 139.341 44.11C140.081 44.11 140.746 44.28 141.336 44.62C141.936 44.96 142.406 45.435 142.746 46.045C143.086 46.645 143.256 47.325 143.256 48.085C143.256 48.845 143.086 49.53 142.746 50.14C142.406 50.74 141.936 51.21 141.336 51.55C140.746 51.89 140.081 52.06 139.341 52.06ZM139.341 51.385C139.941 51.385 140.476 51.245 140.946 50.965C141.426 50.685 141.801 50.295 142.071 49.795C142.351 49.295 142.491 48.725 142.491 48.085C142.491 47.445 142.351 46.875 142.071 46.375C141.801 45.875 141.426 45.485 140.946 45.205C140.476 44.925 139.941 44.785 139.341 44.785C138.741 44.785 138.201 44.925 137.721 45.205C137.251 45.485 136.876 45.875 136.596 46.375C136.326 46.875 136.191 47.445 136.191 48.085C136.191 48.725 136.326 49.295 136.596 49.795C136.876 50.295 137.251 50.685 137.721 50.965C138.201 51.245 138.741 51.385 139.341 51.385ZM148.194 44.11C149.164 44.11 149.909 44.36 150.429 44.86C150.949 45.35 151.209 46.075 151.209 47.035V52H150.489V50.605C150.239 51.065 149.874 51.425 149.394 51.685C148.914 51.935 148.339 52.06 147.669 52.06C146.799 52.06 146.109 51.855 145.599 51.445C145.099 51.035 144.849 50.495 144.849 49.825C144.849 49.175 145.079 48.65 145.539 48.25C146.009 47.84 146.754 47.635 147.774 47.635H150.459V47.005C150.459 46.275 150.259 45.72 149.859 45.34C149.469 44.96 148.894 44.77 148.134 44.77C147.614 44.77 147.114 44.86 146.634 45.04C146.164 45.22 145.764 45.46 145.434 45.76L145.059 45.22C145.449 44.87 145.919 44.6 146.469 44.41C147.019 44.21 147.594 44.11 148.194 44.11ZM147.774 51.445C148.424 51.445 148.974 51.295 149.424 50.995C149.884 50.695 150.229 50.26 150.459 49.69V48.22H147.789C147.019 48.22 146.459 48.36 146.109 48.64C145.769 48.92 145.599 49.305 145.599 49.795C145.599 50.305 145.789 50.71 146.169 51.01C146.549 51.3 147.084 51.445 147.774 51.445ZM161.274 40.87V52H160.539V50.155C160.229 50.765 159.794 51.235 159.234 51.565C158.674 51.895 158.039 52.06 157.329 52.06C156.599 52.06 155.939 51.89 155.349 51.55C154.759 51.21 154.294 50.74 153.954 50.14C153.624 49.54 153.459 48.855 153.459 48.085C153.459 47.315 153.624 46.63 153.954 46.03C154.294 45.42 154.759 44.95 155.349 44.62C155.939 44.28 156.599 44.11 157.329 44.11C158.029 44.11 158.654 44.275 159.204 44.605C159.764 44.935 160.204 45.395 160.524 45.985V40.87H161.274ZM157.374 51.385C157.974 51.385 158.509 51.245 158.979 50.965C159.459 50.685 159.834 50.295 160.104 49.795C160.384 49.295 160.524 48.725 160.524 48.085C160.524 47.445 160.384 46.875 160.104 46.375C159.834 45.875 159.459 45.485 158.979 45.205C158.509 44.925 157.974 44.785 157.374 44.785C156.774 44.785 156.234 44.925 155.754 45.205C155.284 45.485 154.909 45.875 154.629 46.375C154.359 46.875 154.224 47.445 154.224 48.085C154.224 48.725 154.359 49.295 154.629 49.795C154.909 50.295 155.284 50.685 155.754 50.965C156.234 51.245 156.774 51.385 157.374 51.385ZM172.983 52.075C171.953 52.075 171.023 51.845 170.193 51.385C169.363 50.915 168.708 50.275 168.228 49.465C167.758 48.655 167.523 47.75 167.523 46.75C167.523 45.75 167.758 44.845 168.228 44.035C168.708 43.225 169.363 42.59 170.193 42.13C171.023 41.66 171.953 41.425 172.983 41.425C174.013 41.425 174.943 41.655 175.773 42.115C176.603 42.575 177.253 43.21 177.723 44.02C178.203 44.83 178.443 45.74 178.443 46.75C178.443 47.76 178.203 48.67 177.723 49.48C177.253 50.29 176.603 50.925 175.773 51.385C174.943 51.845 174.013 52.075 172.983 52.075ZM172.983 51.37C173.863 51.37 174.658 51.17 175.368 50.77C176.078 50.37 176.638 49.82 177.048 49.12C177.458 48.41 177.663 47.62 177.663 46.75C177.663 45.88 177.458 45.095 177.048 44.395C176.638 43.685 176.078 43.13 175.368 42.73C174.658 42.33 173.863 42.13 172.983 42.13C172.103 42.13 171.303 42.33 170.583 42.73C169.873 43.13 169.313 43.685 168.903 44.395C168.493 45.095 168.288 45.88 168.288 46.75C168.288 47.62 168.493 48.41 168.903 49.12C169.313 49.82 169.873 50.37 170.583 50.77C171.303 51.17 172.103 51.37 172.983 51.37ZM184.682 44.11C185.662 44.11 186.437 44.395 187.007 44.965C187.577 45.535 187.862 46.355 187.862 47.425V52H187.112V47.485C187.112 46.605 186.887 45.935 186.437 45.475C185.997 45.015 185.377 44.785 184.577 44.785C183.657 44.785 182.932 45.06 182.402 45.61C181.872 46.16 181.607 46.9 181.607 47.83V52H180.857V44.17H181.577V45.865C181.847 45.315 182.247 44.885 182.777 44.575C183.317 44.265 183.952 44.11 184.682 44.11ZM197.052 42.19H193.272V41.5H201.597V42.19H197.817V52H197.052V42.19ZM207.079 44.11C208.059 44.11 208.834 44.395 209.404 44.965C209.974 45.535 210.259 46.355 210.259 47.425V52H209.509V47.485C209.509 46.605 209.284 45.935 208.834 45.475C208.394 45.015 207.774 44.785 206.974 44.785C206.054 44.785 205.329 45.06 204.799 45.61C204.269 46.16 204.004 46.9 204.004 47.83V52H203.254V40.87H204.004V45.805C204.274 45.265 204.674 44.85 205.204 44.56C205.734 44.26 206.359 44.11 207.079 44.11ZM219.976 48.265H213.241C213.261 48.875 213.416 49.42 213.706 49.9C213.996 50.37 214.386 50.735 214.876 50.995C215.376 51.255 215.936 51.385 216.556 51.385C217.066 51.385 217.536 51.295 217.966 51.115C218.406 50.925 218.771 50.65 219.061 50.29L219.496 50.785C219.156 51.195 218.726 51.51 218.206 51.73C217.696 51.95 217.141 52.06 216.541 52.06C215.761 52.06 215.066 51.89 214.456 51.55C213.846 51.21 213.366 50.74 213.016 50.14C212.676 49.54 212.506 48.855 212.506 48.085C212.506 47.325 212.666 46.645 212.986 46.045C213.316 45.435 213.766 44.96 214.336 44.62C214.906 44.28 215.546 44.11 216.256 44.11C216.966 44.11 217.601 44.28 218.161 44.62C218.731 44.95 219.176 45.415 219.496 46.015C219.826 46.615 219.991 47.295 219.991 48.055L219.976 48.265ZM216.256 44.77C215.706 44.77 215.211 44.895 214.771 45.145C214.331 45.385 213.976 45.73 213.706 46.18C213.446 46.62 213.296 47.12 213.256 47.68H219.256C219.226 47.12 219.076 46.62 218.806 46.18C218.536 45.74 218.181 45.395 217.741 45.145C217.301 44.895 216.806 44.77 216.256 44.77Z" fill="black"/>
<path d="M95.5729 74H99.2809L93.7009 61.4H90.1909L84.6289 74H88.2649L89.2549 71.552H94.5829L95.5729 74ZM90.2989 68.924L91.9189 64.892L93.5389 68.924H90.2989ZM106.267 64.082C104.989 64.082 104.035 64.442 103.387 65.216V64.244H100.129V77.492H103.549V73.136C104.215 73.82 105.133 74.162 106.267 74.162C108.913 74.162 111.055 72.218 111.055 69.122C111.055 66.026 108.913 64.082 106.267 64.082ZM105.547 71.444C104.395 71.444 103.495 70.598 103.495 69.122C103.495 67.646 104.395 66.8 105.547 66.8C106.699 66.8 107.599 67.646 107.599 69.122C107.599 70.598 106.699 71.444 105.547 71.444ZM118.783 64.082C117.505 64.082 116.551 64.442 115.903 65.216V64.244H112.645V77.492H116.065V73.136C116.731 73.82 117.649 74.162 118.783 74.162C121.429 74.162 123.571 72.218 123.571 69.122C123.571 66.026 121.429 64.082 118.783 64.082ZM118.063 71.444C116.911 71.444 116.011 70.598 116.011 69.122C116.011 67.646 116.911 66.8 118.063 66.8C119.215 66.8 120.115 67.646 120.115 69.122C120.115 70.598 119.215 71.444 118.063 71.444ZM134.989 74.252C138.733 74.252 140.569 72.38 140.569 70.184C140.569 65.54 133.423 66.98 133.423 65.054C133.423 64.424 133.963 63.92 135.457 63.92C136.555 63.92 137.743 64.244 138.949 64.892L140.047 62.246C138.805 61.526 137.113 61.148 135.475 61.148C131.731 61.148 129.895 62.984 129.895 65.234C129.895 69.914 137.059 68.456 137.059 70.454C137.059 71.066 136.483 71.48 135.007 71.48C133.549 71.48 131.965 70.976 130.849 70.238L129.679 72.866C130.867 73.694 132.919 74.252 134.989 74.252ZM147.939 71.21C147.651 71.408 147.273 71.516 146.895 71.516C146.283 71.516 145.869 71.12 145.869 70.4V67.16H148.101V64.604H145.869V62.066H142.449V64.604H141.027V67.16H142.449V70.436C142.449 72.938 143.907 74.162 146.409 74.162C147.309 74.162 148.191 73.982 148.785 73.604L147.939 71.21ZM154.719 74.162C157.941 74.162 160.227 72.056 160.227 69.104C160.227 66.17 157.941 64.082 154.719 64.082C151.533 64.082 149.211 66.17 149.211 69.104C149.211 72.056 151.533 74.162 154.719 74.162ZM154.719 71.444C153.567 71.444 152.667 70.598 152.667 69.104C152.667 67.628 153.567 66.8 154.719 66.8C155.889 66.8 156.771 67.628 156.771 69.104C156.771 70.598 155.889 71.444 154.719 71.444ZM165.069 65.414V64.244H161.811V74H165.231V69.518C165.231 67.808 166.185 67.106 167.571 67.106C167.823 67.106 168.039 67.124 168.345 67.16V64.082C166.905 64.082 165.771 64.532 165.069 65.414ZM179.64 69.14C179.64 65.918 177.3 64.082 174.42 64.082C171.342 64.082 169.056 66.17 169.056 69.104C169.056 72.02 171.306 74.162 174.78 74.162C176.634 74.162 178.002 73.622 178.938 72.578L177.138 70.706C176.472 71.282 175.842 71.552 174.888 71.552C173.628 71.552 172.782 70.976 172.494 69.986H179.586C179.604 69.716 179.64 69.392 179.64 69.14ZM174.438 66.512C175.5 66.512 176.256 67.16 176.436 68.186H172.44C172.638 67.16 173.376 66.512 174.438 66.512Z" fill="black"/>
<defs>
<clipPath id="clip0_218_2">
<rect width="57" height="57" fill="white" transform="translate(19 24)"/>
</clipPath>
</defs>
</svg>
