<svg width="237" height="114" viewBox="0 0 237 114" fill="none" xmlns="http://www.w3.org/2000/svg">
<rect width="237" height="114" rx="28" fill="white"/>
<path d="M102.702 44.795H103.437V48.725C102.977 49.165 102.417 49.5 101.757 49.73C101.107 49.96 100.417 50.075 99.6871 50.075C98.6471 50.075 97.7071 49.845 96.8671 49.385C96.0371 48.925 95.3821 48.29 94.9021 47.48C94.4321 46.67 94.1971 45.76 94.1971 44.75C94.1971 43.74 94.4321 42.83 94.9021 42.02C95.3821 41.21 96.0371 40.575 96.8671 40.115C97.7071 39.655 98.6521 39.425 99.7021 39.425C100.472 39.425 101.177 39.55 101.817 39.8C102.467 40.04 103.022 40.395 103.482 40.865L103.002 41.375C102.562 40.935 102.067 40.62 101.517 40.43C100.977 40.23 100.377 40.13 99.7171 40.13C98.8171 40.13 98.0021 40.33 97.2721 40.73C96.5521 41.13 95.9871 41.685 95.5771 42.395C95.1671 43.095 94.9621 43.88 94.9621 44.75C94.9621 45.61 95.1671 46.395 95.5771 47.105C95.9971 47.805 96.5671 48.36 97.2871 48.77C98.0071 49.17 98.8171 49.37 99.7171 49.37C100.917 49.37 101.912 49.05 102.702 48.41V44.795ZM106.564 42.17H107.314V50H106.564V42.17ZM106.939 40.265C106.769 40.265 106.624 40.21 106.504 40.1C106.384 39.98 106.324 39.835 106.324 39.665C106.324 39.495 106.384 39.35 106.504 39.23C106.624 39.11 106.769 39.05 106.939 39.05C107.109 39.05 107.254 39.11 107.374 39.23C107.494 39.34 107.554 39.48 107.554 39.65C107.554 39.82 107.494 39.965 107.374 40.085C107.254 40.205 107.109 40.265 106.939 40.265ZM114.36 49.505C114.17 49.685 113.93 49.825 113.64 49.925C113.36 50.015 113.065 50.06 112.755 50.06C112.075 50.06 111.55 49.875 111.18 49.505C110.81 49.125 110.625 48.6 110.625 47.93V42.815H109.185V42.17H110.625V40.46H111.375V42.17H113.865V42.815H111.375V47.855C111.375 48.365 111.495 48.755 111.735 49.025C111.985 49.285 112.35 49.415 112.83 49.415C113.32 49.415 113.725 49.27 114.045 48.98L114.36 49.505ZM120.544 39.5H121.309V50H120.544V39.5ZM128.613 49.505C128.423 49.685 128.183 49.825 127.893 49.925C127.613 50.015 127.318 50.06 127.008 50.06C126.328 50.06 125.803 49.875 125.433 49.505C125.063 49.125 124.878 48.6 124.878 47.93V42.815H123.438V42.17H124.878V40.46H125.628V42.17H128.118V42.815H125.628V47.855C125.628 48.365 125.748 48.755 125.988 49.025C126.238 49.285 126.603 49.415 127.083 49.415C127.573 49.415 127.978 49.27 128.298 48.98L128.613 49.505ZM139.252 50.075C138.222 50.075 137.292 49.845 136.462 49.385C135.632 48.915 134.977 48.275 134.497 47.465C134.027 46.655 133.792 45.75 133.792 44.75C133.792 43.75 134.027 42.845 134.497 42.035C134.977 41.225 135.632 40.59 136.462 40.13C137.292 39.66 138.222 39.425 139.252 39.425C140.282 39.425 141.212 39.655 142.042 40.115C142.872 40.575 143.522 41.21 143.992 42.02C144.472 42.83 144.712 43.74 144.712 44.75C144.712 45.76 144.472 46.67 143.992 47.48C143.522 48.29 142.872 48.925 142.042 49.385C141.212 49.845 140.282 50.075 139.252 50.075ZM139.252 49.37C140.132 49.37 140.927 49.17 141.637 48.77C142.347 48.37 142.907 47.82 143.317 47.12C143.727 46.41 143.932 45.62 143.932 44.75C143.932 43.88 143.727 43.095 143.317 42.395C142.907 41.685 142.347 41.13 141.637 40.73C140.927 40.33 140.132 40.13 139.252 40.13C138.372 40.13 137.572 40.33 136.852 40.73C136.142 41.13 135.582 41.685 135.172 42.395C134.762 43.095 134.557 43.88 134.557 44.75C134.557 45.62 134.762 46.41 135.172 47.12C135.582 47.82 136.142 48.37 136.852 48.77C137.572 49.17 138.372 49.37 139.252 49.37ZM150.95 42.11C151.93 42.11 152.705 42.395 153.275 42.965C153.845 43.535 154.13 44.355 154.13 45.425V50H153.38V45.485C153.38 44.605 153.155 43.935 152.705 43.475C152.265 43.015 151.645 42.785 150.845 42.785C149.925 42.785 149.2 43.06 148.67 43.61C148.14 44.16 147.875 44.9 147.875 45.83V50H147.125V42.17H147.845V43.865C148.115 43.315 148.515 42.885 149.045 42.575C149.585 42.265 150.22 42.11 150.95 42.11Z" fill="black"/>
<path d="M104.39 70.192C103.652 70.588 102.914 70.732 102.122 70.732C99.7098 70.732 98.0358 69.058 98.0358 66.7C98.0358 64.306 99.7098 62.668 102.158 62.668C103.436 62.668 104.498 63.118 105.416 64.09L107.288 62.362C106.064 60.94 104.228 60.184 102.014 60.184C97.9998 60.184 95.0838 62.902 95.0838 66.7C95.0838 70.498 97.9998 73.216 101.96 73.216C103.76 73.216 105.668 72.658 107.054 71.614V66.502H104.39V70.192ZM114.173 73.144C117.251 73.144 119.483 71.074 119.483 68.158C119.483 65.242 117.251 63.172 114.173 63.172C111.095 63.172 108.845 65.242 108.845 68.158C108.845 71.074 111.095 73.144 114.173 73.144ZM114.173 70.84C112.769 70.84 111.689 69.832 111.689 68.158C111.689 66.484 112.769 65.476 114.173 65.476C115.577 65.476 116.639 66.484 116.639 68.158C116.639 69.832 115.577 70.84 114.173 70.84ZM125.967 73.144C129.045 73.144 131.277 71.074 131.277 68.158C131.277 65.242 129.045 63.172 125.967 63.172C122.889 63.172 120.639 65.242 120.639 68.158C120.639 71.074 122.889 73.144 125.967 73.144ZM125.967 70.84C124.563 70.84 123.483 69.832 123.483 68.158C123.483 66.484 124.563 65.476 125.967 65.476C127.371 65.476 128.433 66.484 128.433 68.158C128.433 69.832 127.371 70.84 125.967 70.84ZM140.48 63.316V64.558C139.742 63.622 138.626 63.172 137.276 63.172C134.594 63.172 132.434 65.026 132.434 67.852C132.434 70.678 134.594 72.532 137.276 72.532C138.536 72.532 139.598 72.136 140.336 71.326V71.74C140.336 73.486 139.472 74.386 137.492 74.386C136.25 74.386 134.9 73.954 134.072 73.288L132.956 75.304C134.09 76.186 135.872 76.636 137.708 76.636C141.2 76.636 143.144 74.98 143.144 71.38V63.316H140.48ZM137.834 70.228C136.358 70.228 135.278 69.274 135.278 67.852C135.278 66.43 136.358 65.476 137.834 65.476C139.31 65.476 140.372 66.43 140.372 67.852C140.372 69.274 139.31 70.228 137.834 70.228ZM145.758 73H148.566V59.644H145.758V73ZM160.658 68.194C160.658 65.08 158.462 63.172 155.618 63.172C152.666 63.172 150.452 65.26 150.452 68.158C150.452 71.038 152.63 73.144 155.978 73.144C157.724 73.144 159.074 72.604 159.974 71.578L158.48 69.958C157.814 70.588 157.076 70.894 156.05 70.894C154.574 70.894 153.548 70.156 153.278 68.95H160.604C160.622 68.716 160.658 68.41 160.658 68.194ZM155.636 65.296C156.896 65.296 157.814 66.088 158.012 67.312H153.242C153.44 66.07 154.358 65.296 155.636 65.296ZM173.277 60.4H167.823V73H170.739V69.526H173.277C176.643 69.526 178.749 67.78 178.749 64.972C178.749 62.146 176.643 60.4 173.277 60.4ZM173.115 67.15H170.739V62.776H173.115C174.897 62.776 175.797 63.586 175.797 64.972C175.797 66.34 174.897 67.15 173.115 67.15ZM180.809 73H183.617V59.644H180.809V73ZM190.129 63.172C188.581 63.172 187.015 63.586 185.953 64.342L186.961 66.304C187.663 65.746 188.725 65.404 189.751 65.404C191.263 65.404 191.983 66.106 191.983 67.312H189.751C186.799 67.312 185.593 68.5 185.593 70.21C185.593 71.884 186.943 73.144 189.211 73.144C190.633 73.144 191.641 72.676 192.163 71.794V73H194.791V67.474C194.791 64.54 193.081 63.172 190.129 63.172ZM189.913 71.254C188.923 71.254 188.329 70.786 188.329 70.084C188.329 69.436 188.743 68.95 190.057 68.95H191.983V69.94C191.659 70.822 190.849 71.254 189.913 71.254ZM204.068 63.316L201.332 69.886L198.614 63.316H195.716L199.91 73.072L199.874 73.162C199.496 74.026 199.064 74.368 198.29 74.368C197.732 74.368 197.138 74.134 196.706 73.756L195.68 75.754C196.31 76.312 197.39 76.636 198.38 76.636C200.126 76.636 201.458 75.934 202.394 73.594L206.768 63.316H204.068Z" fill="black"/>
<path d="M65.2145 54.0846L40.644 29.4482L71.9049 47.3942L65.2145 54.0846ZM34.2332 28C32.7851 28.757 31.8179 30.1375 31.8179 31.9294V81.0581C31.8179 82.85 32.7869 84.2305 34.2332 84.9875L62.8009 56.4875L34.2332 28ZM81.5682 53.1156L75.0114 49.3198L67.6976 56.5L75.0114 63.6802L81.7018 59.8844C83.7057 58.2937 83.7057 54.7081 81.5682 53.1156ZM40.6457 83.5536L71.9067 65.6075L65.2163 58.9172L40.6457 83.5536Z" fill="black"/>
</svg>
