<svg width="138" height="138" viewBox="0 0 138 138" fill="none" xmlns="http://www.w3.org/2000/svg">
<path fill-rule="evenodd" clip-rule="evenodd" d="M73.1001 104.31C61.3945 104.31 49.5021 96.9265 42.5615 87.1544C9.26293 87.1544 8.25635 137.697 8.25635 137.697H137.936C137.936 137.697 140.55 86.9302 103.103 86.9302C96.1705 96.8231 84.8057 104.31 73.1001 104.31Z" fill="black"/>
<path fill-rule="evenodd" clip-rule="evenodd" d="M100.993 43.7188C100.993 58.2606 88.5001 86.0676 73.0766 86.0676C57.6774 86.0676 45.1763 58.252 45.1763 43.7188C45.1763 29.1857 57.6693 17.3867 73.0766 17.3867C88.5001 17.3953 100.993 29.1943 100.993 43.7188Z" fill="black"/>
<path fill-rule="evenodd" clip-rule="evenodd" d="M113.446 31.1705C113.446 28.445 109.874 26.2456 105.442 26.2283V20.6135C105.442 19.7768 105.742 0.189453 73.1739 0.189453C40.6222 0.189453 40.9225 19.7768 40.9225 20.6135V26.4267C40.8413 26.4267 40.7764 26.4008 40.7033 26.4008C36.2955 26.4008 32.748 28.5657 32.748 31.2481V55.0013C32.748 57.6665 36.3036 59.84 40.7033 59.84C45.1031 59.84 48.6749 57.6665 48.6749 55.0013V31.2481C48.6749 30.8772 48.4557 30.5408 48.3258 30.1958V23.7185C48.3258 23.1233 45.9879 8.34008 73.1739 8.34008C100.368 8.34008 97.5431 23.1233 97.5431 23.7185V30.5408C97.4944 30.7565 97.3402 30.9462 97.3402 31.1705V55.4671C97.3402 58.2012 100.936 60.4178 105.393 60.4178C105.49 60.4178 105.563 60.3833 105.661 60.3833V69.2584H97.673V77.6247H113.527L113.446 31.1705Z" fill="black"/>
</svg>
