<svg width="128" height="138" viewBox="0 0 128 138" fill="none" xmlns="http://www.w3.org/2000/svg">
<path d="M64 120.75C58.5 120.75 52.9167 120.031 47.25 118.594C44.4167 122.188 41.5208 125.31 38.5625 127.96C35.6042 130.61 33.1042 132.564 31.0625 133.822C29.0208 135.08 27.0417 136.046 25.125 136.72C23.2083 137.394 21.9583 137.775 21.375 137.865C20.7917 137.955 20.3333 138 20 138C22.1667 132.879 23.4167 127.286 23.75 121.222C24.0833 115.157 23.5 110.059 22 105.926C15.1667 100.266 9.79167 93.4824 5.875 85.5762C1.95833 77.6699 0 69.2695 0 60.375C0 52.1992 1.6875 44.3828 5.0625 36.9258C8.4375 29.4688 12.9792 23.0449 18.6875 17.6543C24.3958 12.2637 31.2083 7.97363 39.125 4.78418C47.0417 1.59473 55.3333 0 64 0C72.6667 0 80.9583 1.59473 88.875 4.78418C96.7917 7.97363 103.604 12.2637 109.312 17.6543C115.021 23.0449 119.562 29.4688 122.938 36.9258C126.312 44.3828 128 52.1992 128 60.375C128 68.5508 126.312 76.3672 122.938 83.8242C119.562 91.2812 115.021 97.7051 109.312 103.096C103.604 108.486 96.7917 112.776 88.875 115.966C80.9583 119.155 72.6667 120.75 64 120.75ZM56 99.1875C56 100.355 56.375 101.366 57.125 102.22C57.875 103.073 58.8333 103.5 60 103.5H68C69.0833 103.5 70.0208 103.073 70.8125 102.22C71.6042 101.366 72 100.355 72 99.1875V90.5625C72 89.3047 71.6042 88.2715 70.8125 87.4629C70.0208 86.6543 69.0833 86.25 68 86.25H60C58.8333 86.25 57.875 86.6543 57.125 87.4629C56.375 88.2715 56 89.3047 56 90.5625V99.1875ZM64 17.25C56.9167 17.25 50.5833 18.9346 45 22.3037C39.4167 25.6729 35.5833 30.0078 33.5 35.3086L48 43.125C48 40.6992 49.5625 38.6553 52.6875 36.9932C55.8125 35.3311 59.5833 34.5 64 34.5C68.4167 34.5 72.1875 35.3311 75.3125 36.9932C78.4375 38.6553 80 40.6768 80 43.0576C80 45.4385 78.4375 47.4824 75.3125 49.1895C72.1875 50.8965 68.4167 51.75 64 51.75C61.75 51.75 59.8542 52.5811 58.3125 54.2432C56.7708 55.9053 56 57.9492 56 60.375V73.3125C56 74.4805 56.375 75.4912 57.125 76.3447C57.875 77.1982 58.8333 77.625 60 77.625H68C69.0833 77.625 70.0208 77.1982 70.8125 76.3447C71.6042 75.4912 72 74.4805 72 73.3125V68.0566C78.9167 66.6191 84.6458 63.5869 89.1875 58.96C93.7292 54.333 96 49.0547 96 43.125C96 35.9375 92.875 29.8281 86.625 24.7969C80.375 19.7656 72.8333 17.25 64 17.25Z" fill="black"/>
</svg>
