<svg width="138" height="138" viewBox="0 0 138 138" fill="none" xmlns="http://www.w3.org/2000/svg">
<path d="M13.7999 6.90015H124.2C127.995 6.90015 131.1 10.0051 131.1 13.8001V124.2L6.8999 124.062V13.8001C6.8999 10.0051 10.0049 6.90015 13.7999 6.90015ZM41.3999 13.8001L27.5999 34.5001H34.4999L48.2999 13.8001H41.3999ZM68.9999 13.8001H62.0999L48.2999 34.5001H55.1999L68.9999 13.8001ZM89.6999 13.8001H82.7999L68.9999 34.5001H75.8999L89.6999 13.8001ZM110.4 13.8001H103.5L89.6999 34.5001H96.5999L110.4 13.8001ZM117.3 110.4V41.4001H20.6999V110.4H117.3ZM55.1999 48.3001L96.5999 75.9001L55.1999 103.5V48.3001Z" fill="black"/>
</svg>
