<svg width="138" height="138" viewBox="0 0 138 138" fill="none" xmlns="http://www.w3.org/2000/svg">
<path d="M92 5.75C78.2 5.75 66.01 12.7075 58.765 23.2875C58.8225 23.23 58.8225 23.1725 58.88 23.115C56.58 23 54.165 23 51.75 23C26.335 23 5.75 25.875 5.75 46V103.5C5.75 108.56 7.9925 113.102 11.5 116.265V126.5C11.5 129.662 14.0875 132.25 17.25 132.25H23C26.1625 132.25 28.75 129.662 28.75 126.5V120.75H74.75V126.5C74.75 129.662 77.3375 132.25 80.5 132.25H86.25C89.4125 132.25 92 129.662 92 126.5V116.265C95.5075 113.102 97.75 108.56 97.75 103.5V85.79C117.243 82.9725 132.25 66.2975 132.25 46C132.25 23.7475 114.253 5.75 92 5.75ZM25.875 109.25C21.1025 109.25 17.25 105.397 17.25 100.625C17.25 95.8525 21.1025 92 25.875 92C30.6475 92 34.5 95.8525 34.5 100.625C34.5 105.397 30.6475 109.25 25.875 109.25ZM17.25 74.75V46H51.75C51.75 57.27 56.4075 67.4475 63.8825 74.75H17.25ZM77.625 109.25C72.8525 109.25 69 105.397 69 100.625C69 95.8525 72.8525 92 77.625 92C82.3975 92 86.25 95.8525 86.25 100.625C86.25 105.397 82.3975 109.25 77.625 109.25ZM92 74.75C76.13 74.75 63.25 61.87 63.25 46C63.25 30.13 76.13 17.25 92 17.25C107.87 17.25 120.75 30.13 120.75 46C120.75 61.87 107.87 74.75 92 74.75ZM94.875 23H86.25V51.75L107.065 64.17L111.378 57.0975L94.875 47.4375V23Z" fill="black"/>
</svg>
