<svg width="121" height="126" viewBox="0 0 121 126" fill="none" xmlns="http://www.w3.org/2000/svg">
<path d="M112.125 0V14.8218L86.25 24.9061V0H77.625V24.7537L43.125 10.4115V0H34.5V10.9628L8.625 27.7701V0H0V125.494H8.625V114.818L34.5 101.372V125.494H43.125V100.144L77.625 110.901V125.494H86.25V110.049L112.125 93.2421V125.494H120.75V0H112.125ZM112.125 24.3952V47.0603L86.25 67.229V34.4795L112.125 24.3952ZM77.625 34.4078V68.2778L43.125 46.7645V20.0656L77.625 34.4078ZM34.5 21.5312V47.2665L8.625 70.7966V38.3385L34.5 21.5312ZM8.625 104.797V82.7096L34.5 59.1795V91.3508L8.625 104.797ZM43.125 90.786V57.2164L77.625 78.7296V101.543L43.125 90.786ZM86.25 99.481V78.4338L112.125 58.2651V82.6737L86.25 99.481Z" fill="black"/>
</svg>
