<svg width="96" height="122" viewBox="0 0 96 122" fill="none" xmlns="http://www.w3.org/2000/svg">
<path d="M48 0.625C35.4234 0.639837 23.3661 5.64247 14.4731 14.5355C5.58002 23.4286 0.577387 35.4858 0.56255 48.0625C0.547487 58.3402 3.90465 68.3389 10.1191 76.525C10.1191 76.525 11.4128 78.2284 11.6241 78.4743L48 121.375L84.3932 78.4527C84.583 78.2241 85.881 76.525 85.881 76.525L85.8854 76.5121C92.0967 68.3296 95.4523 58.3354 95.4375 48.0625C95.4227 35.4858 90.4201 23.4286 81.527 14.5355C72.634 5.64247 60.5767 0.639837 48 0.625ZM48 65.3125C44.5883 65.3125 41.2532 64.3008 38.4165 62.4053C35.5797 60.5099 33.3687 57.8158 32.0631 54.6638C30.7575 51.5118 30.4159 48.0434 31.0815 44.6972C31.7471 41.351 33.39 38.2774 35.8025 35.8649C38.2149 33.4524 41.2886 31.8095 44.6347 31.144C47.9809 30.4784 51.4493 30.82 54.6013 32.1256C57.7534 33.4312 60.4474 35.6422 62.3429 38.4789C64.2383 41.3157 65.25 44.6508 65.25 48.0625C65.2443 52.6357 63.4251 57.02 60.1913 60.2538C56.9576 63.4876 52.5733 65.3068 48 65.3125Z" fill="black"/>
</svg>
