<svg width="107" height="107" viewBox="0 0 107 107" fill="none" xmlns="http://www.w3.org/2000/svg">
<path d="M93.5786 107H13.4069C9.71842 107 6.56931 105.694 3.95956 103.082C1.3498 100.469 0.0449219 97.3171 0.0449219 93.625V13.375C0.0449219 9.68294 1.3498 6.53076 3.95956 3.91846C6.56931 1.30615 9.71842 0 13.4069 0H93.5786C97.267 0 100.416 1.30615 103.026 3.91846C105.636 6.53076 106.941 9.68294 106.941 13.375V93.625C106.941 97.3171 105.636 100.469 103.026 103.082C100.416 105.694 97.267 107 93.5786 107ZM93.5786 46.8125C93.5786 44.9316 92.9348 43.3468 91.6474 42.0581C90.3599 40.7694 88.7766 40.125 86.8976 40.125H66.8547V20.0625C66.8547 18.1816 66.2109 16.5968 64.9235 15.3081C63.636 14.0194 62.0527 13.375 60.1737 13.375H46.8117C44.9327 13.375 43.3495 14.0194 42.062 15.3081C40.7745 16.5968 40.1308 18.1816 40.1308 20.0625V40.125H20.0878C18.2784 40.125 16.7126 40.7694 15.3903 42.0581C14.068 43.3468 13.4069 44.9316 13.4069 46.8125V60.1875C13.4069 62.0684 14.068 63.6532 15.3903 64.9419C16.7126 66.2306 18.2784 66.875 20.0878 66.875H40.1308V86.9375C40.1308 88.8184 40.7919 90.4032 42.1142 91.6919C43.4365 92.9806 45.0023 93.625 46.8117 93.625H60.1737C62.0527 93.625 63.636 92.9806 64.9235 91.6919C66.2109 90.4032 66.8547 88.8184 66.8547 86.9375V66.875H86.8976C88.7766 66.875 90.3599 66.2306 91.6474 64.9419C92.9348 63.6532 93.5786 62.0684 93.5786 60.1875V46.8125Z" fill="black"/>
</svg>
