<svg width="138" height="138" viewBox="0 0 138 138" fill="none" xmlns="http://www.w3.org/2000/svg">
<path d="M69 74.75C78.5269 74.75 86.25 67.0269 86.25 57.5C86.25 47.9731 78.5269 40.25 69 40.25C59.4731 40.25 51.75 47.9731 51.75 57.5C51.75 67.0269 59.4731 74.75 69 74.75Z" fill="black"/>
<path d="M104.219 11.5H33.7812C30.9228 11.503 28.1823 12.6399 26.1611 14.6611C24.1399 16.6823 23.003 19.4228 23 22.2812V92.7188C23 98.6643 27.8357 103.5 33.7812 103.5H63.25V115H40.25V126.5H97.75V115H74.75V103.5H104.219C107.077 103.497 109.818 102.36 111.839 100.339C113.86 98.3177 114.997 95.5772 115 92.7188V22.2812C114.997 19.4228 113.86 16.6823 111.839 14.6611C109.818 12.6399 107.077 11.503 104.219 11.5ZM69 86.25C53.1473 86.25 40.25 73.3527 40.25 57.5C40.25 41.6473 53.1473 28.75 69 28.75C84.8527 28.75 97.75 41.6473 97.75 57.5C97.75 73.3527 84.8527 86.25 69 86.25Z" fill="black"/>
</svg>
