<svg width="138" height="138" viewBox="0 0 138 138" fill="none" xmlns="http://www.w3.org/2000/svg">
<path d="M34.5 4.3125C34.5 3.16875 34.0456 2.07185 33.2369 1.2631C32.4281 0.454351 31.3312 0 30.1875 0C29.0438 0 27.9469 0.454351 27.1381 1.2631C26.3294 2.07185 25.875 3.16875 25.875 4.3125V8.625H17.25C12.675 8.625 8.28741 10.4424 5.05241 13.6774C1.81741 16.9124 0 21.3 0 25.875L0 34.5H138V25.875C138 21.3 136.183 16.9124 132.948 13.6774C129.713 10.4424 125.325 8.625 120.75 8.625H112.125V4.3125C112.125 3.16875 111.671 2.07185 110.862 1.2631C110.053 0.454351 108.956 0 107.812 0C106.669 0 105.572 0.454351 104.763 1.2631C103.954 2.07185 103.5 3.16875 103.5 4.3125V8.625H34.5V4.3125ZM81.0923 88.3717C86.4829 88.3717 91.3043 84.1973 91.3043 78.1943C91.3043 71.0182 86.7589 67.5855 81.2992 67.5855C76.245 67.5855 71.2253 70.9234 71.2253 78.0217C71.2253 85.0684 75.9086 88.3717 81.0923 88.3717Z" fill="black"/>
<path d="M138 120.75V43.125H0V120.75C0 125.325 1.81741 129.713 5.05241 132.948C8.28741 136.183 12.675 138 17.25 138H120.75C125.325 138 129.713 136.183 132.948 132.948C136.183 129.713 138 125.325 138 120.75ZM80.523 110.314C70.9493 110.314 66.24 103.698 65.8346 98.1784H71.7255C72.0964 101.37 75.0634 105.251 80.7904 105.251C88.0699 105.251 92.0115 97.9369 92.046 86.5864H91.8131C90.4935 90.1571 86.319 93.4001 79.8848 93.4001C72.5362 93.4001 65.4293 88.1389 65.4293 78.1339C65.4293 68.3272 72.9416 62.5312 80.9284 62.5312C91.0369 62.5312 97.773 68.862 97.773 85.5428C97.773 101.111 91.3733 110.305 80.523 110.305V110.314ZM55.5968 63.4369V109.425H49.7663V69.6814H49.6628C47.1615 71.0269 42.0469 74.1664 38.8125 76.383V70.38C42.4423 67.8369 46.2242 65.5182 50.1371 63.4369H55.5881H55.5968Z" fill="black"/>
</svg>
