<svg width="138" height="138" viewBox="0 0 138 138" fill="none" xmlns="http://www.w3.org/2000/svg">
<path d="M5.61919 15.0036V123.001H71.2253C110.844 123.001 132.407 104.561 132.407 68.871C132.407 32.2147 109.029 15.0036 71.2253 15.0036H5.61919ZM71.2253 9.41455C129.328 9.41455 138 46.653 138 68.871C138 107.39 114.281 128.612 71.2253 128.612H0V9.41455H71.2253ZM14.421 76.793H35.4186V114.191H14.421V76.793ZM37.9629 57.9733C37.9629 59.6876 37.6253 61.385 36.9693 62.9688C36.3132 64.5526 35.3517 65.9917 34.1395 67.2038C32.9274 68.416 31.4883 69.3775 29.9045 70.0336C28.3207 70.6896 26.6233 71.0272 24.909 71.0272C23.1947 71.0272 21.4972 70.6896 19.9135 70.0336C18.3297 69.3775 16.8906 68.416 15.6785 67.2038C14.4663 65.9917 13.5048 64.5526 12.8487 62.9688C12.1927 61.385 11.8551 59.6876 11.8551 57.9733C11.8551 40.5681 37.9586 40.5681 37.9586 57.9733H37.9629ZM45.9756 51.884V64.0841H49.7231C52.3106 64.0841 54.7127 63.3424 54.7127 57.8784C54.7127 52.5827 52.0389 51.8797 49.7231 51.8797L45.9756 51.884ZM108.377 45.8465H114.437V64.0841H123.402C120.931 30.9771 94.9009 23.8356 71.2253 23.8356H46.0014V45.8465H49.7274C56.5369 45.8465 60.7804 50.4696 60.7804 57.8827C60.7804 65.5633 56.6533 70.1259 49.7274 70.1259H46.0014V114.217H71.2253C109.697 114.217 123.083 96.3416 123.557 70.1259H108.399V45.825L108.377 45.8465ZM91.5285 59.3878H95.91L93.8874 52.518H93.5295L91.5285 59.3878ZM82.0712 70.1432L89.4197 45.8422H98.0231L105.341 70.1432H99.0581L97.6609 65.4296H89.7561L88.389 70.1432H82.0712ZM79.1775 64.0841V70.1216H64.2174V45.8465H78.7074V51.884H70.2592V54.7174H78.2287V60.7549H70.2592V64.0841H79.1775Z" fill="black"/>
</svg>
