<svg width="138" height="138" viewBox="0 0 138 138" fill="none" xmlns="http://www.w3.org/2000/svg">
<path d="M73.3125 103.5V120.75H99.1875C100.331 120.75 101.428 121.204 102.237 122.013C103.046 122.822 103.5 123.919 103.5 125.062C103.5 126.206 103.046 127.303 102.237 128.112C101.428 128.921 100.331 129.375 99.1875 129.375H38.8125C37.6688 129.375 36.5719 128.921 35.7631 128.112C34.9544 127.303 34.5 126.206 34.5 125.062C34.5 123.919 34.9544 122.822 35.7631 122.013C36.5719 121.204 37.6688 120.75 38.8125 120.75H64.6875V103.5H25.875C21.3 103.5 16.9124 101.683 13.6774 98.4476C10.4424 95.2126 8.625 90.825 8.625 86.25V34.5C8.625 29.925 10.4424 25.5374 13.6774 22.3024C16.9124 19.0674 21.3 17.25 25.875 17.25H112.125C116.7 17.25 121.088 19.0674 124.323 22.3024C127.558 25.5374 129.375 29.925 129.375 34.5V86.25C129.375 90.825 127.558 95.2126 124.323 98.4476C121.088 101.683 116.7 103.5 112.125 103.5H73.3125ZM25.875 25.875C23.5875 25.875 21.3937 26.7837 19.7762 28.4012C18.1587 30.0187 17.25 32.2125 17.25 34.5V86.25C17.25 88.5375 18.1587 90.7313 19.7762 92.3488C21.3937 93.9663 23.5875 94.875 25.875 94.875H112.125C114.412 94.875 116.606 93.9663 118.224 92.3488C119.841 90.7313 120.75 88.5375 120.75 86.25V34.5C120.75 32.2125 119.841 30.0187 118.224 28.4012C116.606 26.7837 114.412 25.875 112.125 25.875H25.875Z" fill="black"/>
</svg>
