<svg width="138" height="138" viewBox="0 0 138 138" fill="none" xmlns="http://www.w3.org/2000/svg">
<path d="M115 23H23C16.6175 23 11.5575 28.1175 11.5575 34.5L11.5 103.5C11.5 109.882 16.6175 115 23 115H115C121.382 115 126.5 109.882 126.5 103.5V34.5C126.5 28.1175 121.382 23 115 23ZM69 57.5H46V63.25H63.25C66.4125 63.25 69 65.8375 69 69V86.25C69 89.4125 66.4125 92 63.25 92H57.5V97.75H46V92H34.5V80.5H57.5V74.75H40.25C37.0875 74.75 34.5 72.1625 34.5 69V51.75C34.5 48.5875 37.0875 46 40.25 46H46V40.25H57.5V46H69V57.5ZM92 93.4375L80.5 81.9375H103.5L92 93.4375ZM80.5 57.5L92 46L103.5 57.5H80.5Z" fill="black"/>
</svg>
